# xmcd CD database file
#
# Track frame offsets:
#	150
#	21730
#	39957
#	55810
#	70655
#	87275
#	109592
#	132347
#	151212
#	171050
#	190992
#	210697
#	228975
#	251267
#	267440
#	285355
#	305042
#	324197
#	342215
#
# Disc length: 4732 seconds
#
# Revision: 14
# Processed by: cddbd v1.4PL0 Copyright (c) Steve Scherf et al.
# Submitted via: jetAudio 5
#
DISCID=05127a13
DTITLE=Bee Gees - Their Greatest Hits  The Record [CDTwo)
DYEAR=2001
DGENRE=Pop
TTITLE0=Stayin' Alive
TTITLE1=How Deep Is Your Love
TTITLE2=Night Fever
TTITLE3=More Than A Woman
TTITLE4=Emotion
TTITLE5=Too Much Heaven
TTITLE6=Tragedy
TTITLE7=Love You Inside Out
TTITLE8=Guilty
TTITLE9=Heartbreaker
TTITLE10=Islands In The Stream
TTITLE11=You Win Again
TTITLE12=One
TTITLE13=Secret Love
TTITLE14=For Whom The Bell Tolls
TTITLE15=Alone
TTITLE16=Immortality
TTITLE17=This Is Where I Came In
TTITLE18=Spicks and Specks
EXTD=This compilation 2001 YEAR: 2001 ID3G: 13
EXTT0=Recorded Spring 1977Released as a single December 1977Fro
EXTT1=Recorded Spring 1977Released as a single September 1977Fr
EXTT2=Recorded Spring 1977Released as a single February 1978Fro
EXTT3=Recorded Spring 1977From the album Saturday Night Fever, re
EXTT4=2001 Polydor Ltd (UK)
EXTT5=Recorded March-November 1978Originally released as a single
EXTT6=Recorded March-November 1978Released as a single February 1
EXTT7=Recorded March-November 1978Released as a single April 1979
EXTT8=From the album Guilty, released October 1980
EXTT9=2001 Polydor Ltd (UK)
EXTT10=2001 Polydor Ltd (UK)
EXTT11=Recorded 1987Originally released as a single September 1987
EXTT12=Recorded 1988Released as a single June 1989From the album
EXTT13=Recorded 1990Originally released as a single March 1991Fr
EXTT14=Recorded 1993Released as a single November 1993From the a
EXTT15=Recorded 1996Released as a single March 1997From the albu
EXTT16=2001 Polydor Ltd. (UK)
EXTT17=Recorded 2000Released as a single March 2001From the albu
EXTT18=Recorded 19661966 Festival Records
PLAYORDER=
